@startuml
left to right direction

namespace notifier {
    class Covid19Notifier << (S,Aquamarine) >> {
        - c <font color=blue>chan</font> model.Covid19Region
        - tp *TelegramPublisher
        - ep *EmailPublisher

        - run() error
        - notify(cov19region model.Covid19Region) 
        - shipEvent(e model.Event, sID uint) error

    }
    class EmailPublisher << (S,Aquamarine) >> {
        + SendGridAPIKey string
        + SendGridEmail string

        + Publish(email string, e model.Event) error

    }
    class TelegramPublisher << (S,Aquamarine) >> {
        + TelegramServiceURI string
        - accessTokenHelper  *Auth0AccessTokenHelper

        + Publish(chatID string, e model.Event) error

    }

    class Auth0AccessTokenHelper << (S,Aquamarine) >> {
           - mu                sync.RWMutex
           - 	ticker            *time.Ticker
           - 	accessToken       string
           + 	OAuthTokenUrl     string
           + 	OAuthClientID     string
           + 	OAuthClientSecret string
           + 	OAuthAudience     string

            + GetAccessToken() string
            -requestAccessToken() (*auth0TokenResponse, error)
            -scheduleTokenRefresh()
        }
}


"notifier.Covid19Notifier" o-- "notifier.EmailPublisher"
"notifier.Covid19Notifier" o-- "notifier.TelegramPublisher"
"notifier.TelegramPublisher" o-- "notifier.Auth0AccessTokenHelper"

@enduml
